# xmcd CD database file
#
# Track frame offsets:
#	150
#	26500
#	52607
#
# Disc length: 1053 seconds
#
# Revision: 2
# Processed by: cddbd v1.5.2PL0 Copyright (c) Steve Scherf et al.
# Submitted via: CDex 1.51
#
DISCID=15041b03
DTITLE=TK PRESENTS - YOU ARE THE ONE
DYEAR=1997
DGENRE=JPop
TTITLE0=YOU ARE THE ONE(ORIGINAL MIX)
TTITLE1=YOU ARE THE ONE(A CAPPELLA MIX)
TTITLE2=YOU ARE THE ONE - Just Instrumental
EXTD=YEAR: 1997
EXTT0=
EXTT1=
EXTT2=
PLAYORDER=
